<svg xmlns="http://www.w3.org/2000/svg" xml:space="preserve" width="1500" height="329" data-id="lg_qomByXMmNdIWTJS4Ih" data-version="1" viewBox="0 0 1500 329"><g data-padding="20"><g transform="translate(10 5.896)scale(.96416)"><rect width="323.71" height="200.722" x="325.654" y="-100.203" fill="none" rx="0" ry="0" transform="translate(293.91 228.47)"/><path d="M644.48 210.028h-8.84v-64.91q3.81-.47 8.42-.7 4.6-.23 9.53-.23 8.09 0 13.76 2.55 5.68 2.56 8.65 7.03 2.98 4.46 2.98 10.23 0 6.97-3.44 11.81-3.44 4.83-9.58 7.39t-14.23 2.56q-3.91 0-7.25-.28Zm8.37-31.62q8.27 0 12.83-3.72t4.56-9.95q0-6.05-4.37-9.58-4.38-3.53-12.47-3.53-2.51 0-4.74.09t-4.18.28v25.95q1.48.18 3.62.32t4.75.14m45.66 31.62h-8.84v-65.1h8.84v27.81h32.08v-27.81h8.84v65.1h-8.84v-29.67h-32.08Zm84.63 1.12q-7.26 0-12.93-2.65t-9.62-7.26q-3.96-4.6-6.05-10.74t-2.09-13.11q0-9.58 3.67-17.16 3.68-7.58 10.56-12t16.46-4.42q7.16 0 12.88 2.61 5.72 2.6 9.72 7.25t6.09 10.7q2.09 6.04 2.09 13.02 0 6.97-2.09 13.11t-6.09 10.74q-4 4.61-9.67 7.26-5.68 2.65-12.93 2.65m0-7.63q7.16 0 12-3.44 4.83-3.44 7.3-9.35 2.46-5.9 2.46-13.34 0-5.02-1.49-9.67t-4.28-8.33q-2.79-3.67-6.83-5.81-4.05-2.14-9.16-2.14-6.79 0-11.67 3.44-4.89 3.44-7.44 9.3-2.56 5.86-2.56 13.21 0 5.02 1.44 9.72 1.44 4.69 4.23 8.41t6.84 5.86q4.04 2.14 9.16 2.14m52.17 6.51h-8.37v-65.1h11.72l28.74 54.13v-54.13h8.37v65.1h-11.54l-28.92-53.75Zm96.26 0h-39.06v-65.1h39.06v7.63h-30.23v19.81h26.04v7.44h-26.04v22.59h30.23Zm-254.08 95.63h-8.83v-65.1h38.59v7.63h-29.76v19.9h24.83v7.25h-24.83Zm79.61 0h-38.69v-65.1h8.84v57.2h29.85Zm61.67-2.33-8.09 3.25-7.26-18.6h-30.13l-7.25 18.42-7.54-3.07 25.49-62.78h9.67Zm-30.41-54.04-12.28 31.25h24.46Zm48.53 56.37h-8.83v-65.1h8.83Zm62.96-2.79-8.27 3.91-8.09-17.67q-3.07-6.6-7.72-9.39t-11.91-2.79h-1.39v28.73h-8.84v-64.91q4.93-.47 9.44-.7t9.63-.23q11.9 0 17.9 4.83 6 4.84 6 12.47 0 6.79-4.05 10.92-4.04 4.14-11.67 6.19 2.51 1.11 4.47 2.65 1.95 1.53 3.76 4.09 1.82 2.56 3.68 6.65Zm-37.38-55.24v21.86h10.23q6.69 0 10.88-2.98 4.18-2.98 4.18-8.56 0-4.65-3.9-7.67-3.91-3.02-11.16-3.02-3.16 0-5.68.09-2.51.09-4.55.28"/><g stroke="#000" stroke-width="3" transform="translate(280 111.69)scale(1.15)"><path d="M181.145.138h485.552"/>undefined
undefined</g><path d="M788.17 1.484A2.91 2.91 0 0 0 785.648.01h-9.486c-.854 0-1.62.378-2.154.97H756.5c-6.813.01-12.333 5.535-12.338 12.348v61.44c0 6.81 5.53 12.348 12.348 12.348h28.188c6.79 0 12.328-5.529 12.328-12.348v-61.44c0-5.607-3.744-10.34-8.856-11.844m3.037 73.284a6.53 6.53 0 0 1-6.519 6.528H756.5a6.54 6.54 0 0 1-6.528-6.528v-61.44A6.54 6.54 0 0 1 756.5 6.8h28.188a6.53 6.53 0 0 1 6.52 6.528Z"/><path d="M785.32 11.815h-29.45a2.91 2.91 0 0 0-2.91 2.91v46.87a2.91 2.91 0 0 0 2.91 2.91h29.45a2.91 2.91 0 0 0 2.91-2.91v-46.87a2.91 2.91 0 0 0-2.91-2.91m-2.91 46.87h-23.63v-41.05h23.63Zm-11.816 10.311a4.743 4.743 0 1 0 .01 9.487 4.743 4.743 0 0 0-.01-9.487m0 5.82a1.086 1.086 0 1 1 0-2.172 1.086 1.086 0 0 1 0 2.172"/></g><path fill="transparent" stroke="transparent" d="M471 0h558v329H471z"/></g></svg>